<svg width="700" height="73" viewBox="0 0 700 73" fill="none" xmlns="http://www.w3.org/2000/svg">
<rect width="700" height="73" rx="36.5" fill="#F5F5F5"/>
<path d="M139.513 43.293V45.0977H117.255V43.293H127.263V37.3594H119.88V25.957H136.751V37.3594H129.368V43.293H139.513ZM121.986 35.6367H134.673V27.6797H121.986V35.6367ZM162.23 36.1836V37.9336H140.054V36.1836H162.23ZM142.871 33.5039V24.9727H159.468V26.7227H145.004V31.7266H159.687V33.5039H142.871ZM142.925 47.668V40.5586H145.058V45.8633H159.879V47.668H142.925ZM176.575 31.8359C176.588 35.7324 179.118 39.7109 182.645 41.4062L181.387 43.0742C178.707 41.7617 176.588 39.0957 175.577 35.9648C174.51 39.3555 172.254 42.1719 169.493 43.5117L168.262 41.8438C171.83 40.1758 174.483 36.0195 174.496 31.8359V29.8945H168.918V28.1445H174.469V24.3711H176.629V28.1445H182.098V29.8945H176.575V31.8359ZM185.161 48.2148V23.9062H187.293V33.8867H191.368V35.7188H187.293V48.2148H185.161ZM199.921 30.4414C199.907 34.8848 202.929 39.3418 206.511 40.9688L205.198 42.6641C202.423 41.3242 200.03 38.4395 198.868 34.9805C197.747 38.6445 195.354 41.7207 192.511 43.1562L191.143 41.3516C194.766 39.6973 197.761 35.0488 197.788 30.4414V26.0117H199.921V30.4414ZM209.163 48.2695V23.9062H211.323V48.2695H209.163ZM232.892 23.9062V33.8047H236.829V35.6094H232.892V48.2148H230.759V23.9062H232.892ZM214.243 41.8984C220.519 38.7812 223.937 34.0918 224.429 28.3359H215.364V26.5312H226.603C226.589 33.4082 223.363 39.6836 215.446 43.5938L214.243 41.8984ZM308.224 34.4062V36.1836H302.892V40.9688C305.271 40.873 307.663 40.709 309.919 40.4492L310.083 42.0625C304.696 42.8418 298.818 42.9512 294.169 42.9375L293.868 41.1328C295.988 41.1328 298.339 41.1191 300.759 41.0508V36.1836H295.728V26.2305H308.114V27.9805H297.833V34.4062H308.224ZM311.532 48.2695V23.9062H313.665V48.2695H311.532ZM324.898 40.2031C324.884 42.3906 326.046 44.6738 328.357 46.0137C330.695 44.5508 331.884 42.0762 331.898 40.2031V38.7266H334.004V40.2031C333.99 42.7188 335.808 45.248 338.98 46.3008L337.859 47.9141C335.439 47.0254 333.744 45.3301 332.923 43.2793C332.158 45.2617 330.668 47.1484 328.398 48.1055C326.074 47.2031 324.57 45.4121 323.832 43.3613C322.957 45.3164 321.289 47.0254 318.964 47.9141L317.898 46.3008C320.974 45.1934 322.82 42.5547 322.847 40.2031V38.7266H324.898V40.2031ZM316.941 30.9883C316.941 27.6523 319.593 25.2871 323.23 25.3008C326.429 25.2871 328.931 27.2148 329.41 30.0312H334.523V23.9062H336.683V37.7969H334.523V31.8086H329.423C329.013 34.707 326.484 36.6758 323.23 36.6758C319.593 36.6758 316.941 34.3379 316.941 30.9883ZM319.019 30.9883C318.992 33.2441 320.783 34.8848 323.23 34.8984C325.623 34.8848 327.414 33.2441 327.414 30.9883C327.414 28.7324 325.623 27.1055 323.23 27.1328C320.783 27.1055 318.992 28.7324 319.019 30.9883ZM344.279 38.5078V41.3516H356.42V38.5078H358.58V47.8867H342.146V38.5078H344.279ZM339.33 36.7852V35.0078H361.479V36.7852H339.33ZM340.588 31.5625C344.922 30.9746 349.311 28.418 349.311 25.3281V24.1797H351.525V25.3281C351.512 28.3223 355.941 31.0156 360.221 31.5625L359.428 33.2852C355.668 32.7246 351.963 30.8105 350.418 28.0898C348.873 30.8242 345.154 32.7246 341.408 33.2852L340.588 31.5625ZM344.279 46.1641H356.42V43.0469H344.279V46.1641ZM382.172 23.9062V48.2148H380.039V23.9062H382.172ZM363.715 41.9531V26.3125H365.821V40.0938C369.539 40.0664 373.368 39.7793 377.442 38.918L377.743 40.75C373.422 41.6523 369.58 41.9531 365.684 41.9531H363.715ZM403.741 23.9062V33.5312H407.815V35.3359H403.741V48.2695H401.608V23.9062H403.741ZM385.995 42.1719V26.2852H397.343V28.0625H388.128V40.3672C392.53 40.3535 395.634 40.1621 399.257 39.4922L399.53 41.3516C395.716 42.0352 392.53 42.1719 387.909 42.1719H385.995ZM410.298 46.1641C409.341 46.1504 408.521 45.3574 408.548 44.3867C408.521 43.4297 409.341 42.6367 410.298 42.6367C411.269 42.6367 412.062 43.4297 412.048 44.3867C412.062 45.3574 411.269 46.1504 410.298 46.1641ZM431.205 26.1758C431.219 29.6074 435.676 32.5605 440.064 33.1758L439.189 34.9258C435.416 34.2969 431.67 32.2051 430.111 29.2246C428.553 32.2324 424.82 34.2969 421.033 34.9258L420.158 33.1758C424.547 32.5605 428.99 29.6621 428.99 26.1758V24.7812H431.205V26.1758ZM419.01 39.4102V37.6055H441.158V39.4102H431.096V48.2148H428.99V39.4102H419.01ZM461.305 26.3672V28.8008C461.278 31.7812 461.278 35.1172 460.403 40.0117L458.215 39.7656C459.131 35.1172 459.131 31.7129 459.145 28.8008V28.1445H444.161V26.3672H461.305ZM441.809 44.7695V42.9922H450.504V34.2969H452.61V42.9922H463.957V44.7695H441.809ZM483.421 23.9062V33.9414H487.495V35.7188H483.421V48.2148H481.288V23.9062H483.421ZM464.471 29.5938V27.8164H470.733V24.207H472.866V27.8164H478.936V29.5938H464.471ZM465.866 37.1953C465.852 33.9141 468.368 31.6172 471.827 31.6172C475.259 31.6172 477.761 33.9141 477.788 37.1953C477.761 40.4902 475.259 42.7734 471.827 42.7734C468.368 42.7734 465.852 40.4902 465.866 37.1953ZM467.917 37.1953C467.903 39.4102 469.557 40.9688 471.827 40.9414C474.069 40.9688 475.71 39.4102 475.737 37.1953C475.71 34.9941 474.069 33.4082 471.827 33.4219C469.557 33.4082 467.903 34.9941 467.917 37.1953ZM507.56 23.9062V38.1797H505.4V33.4219H500.532V31.6719H505.4V28.6094H500.532V26.8594H505.4V23.9062H507.56ZM487.435 35.9375C491.126 34.5293 493.56 31.1934 493.587 27.3516V24.8086H495.693V27.3516C495.665 30.8379 498.099 34.1875 501.654 35.5273L500.423 37.2227C497.784 36.1426 495.706 33.9961 494.654 31.3301C493.628 34.2285 491.482 36.498 488.638 37.6328L487.435 35.9375ZM488.775 46.3008C491.851 45.1934 493.696 42.5547 493.724 40.2031V39.0273H495.775V40.2031C495.761 42.3906 496.923 44.6738 499.234 46.0137C501.571 44.5508 502.761 42.0762 502.775 40.2031V39.0273H504.88V40.2031C504.866 42.7188 506.685 45.248 509.857 46.3008L508.736 47.9141C506.316 47.0254 504.62 45.3301 503.8 43.2793C503.034 45.2617 501.544 47.1484 499.275 48.1055C496.95 47.2031 495.446 45.3984 494.708 43.3613C493.833 45.3164 492.165 47.0254 489.841 47.9141L488.775 46.3008ZM515.156 38.5078V41.3516H527.297V38.5078H529.457V47.8867H513.023V38.5078H515.156ZM510.207 36.7852V35.0078H532.355V36.7852H510.207ZM511.464 31.5625C515.798 30.9746 520.187 28.418 520.187 25.3281V24.1797H522.402V25.3281C522.388 28.3223 526.818 31.0156 531.097 31.5625L530.304 33.2852C526.545 32.7246 522.839 30.8105 521.295 28.0898C519.75 30.8242 516.031 32.7246 512.285 33.2852L511.464 31.5625ZM515.156 46.1641H527.297V43.0469H515.156V46.1641ZM553.049 23.9062V48.2148H550.916V23.9062H553.049ZM534.592 41.9531V26.3125H536.697V40.0938C540.416 40.0664 544.244 39.7793 548.318 38.918L548.619 40.75C544.299 41.6523 540.457 41.9531 536.561 41.9531H534.592ZM574.618 23.9062V33.5312H578.692V35.3359H574.618V48.2695H572.485V23.9062H574.618ZM556.871 42.1719V26.2852H568.219V28.0625H559.004V40.3672C563.407 40.3535 566.51 40.1621 570.133 39.4922L570.407 41.3516C566.592 42.0352 563.407 42.1719 558.786 42.1719H556.871ZM581.175 46.1641C580.218 46.1504 579.397 45.3574 579.425 44.3867C579.397 43.4297 580.218 42.6367 581.175 42.6367C582.145 42.6367 582.938 43.4297 582.925 44.3867C582.938 45.3574 582.145 46.1504 581.175 46.1641Z" fill="black"/>
<path d="M249.752 24.6445C253.389 24.6582 256 26.6953 256.014 29.7031C256 32.1367 254.223 33.9961 251.557 34.5703V36.3887C253.512 36.2656 255.453 36.0879 257.271 35.8281L257.545 38.3711C252.418 39.2734 246.717 39.3965 242.561 39.3828L242.205 36.6211C243.928 36.6211 245.938 36.6074 248.057 36.5527V34.5977C245.309 34.0508 243.477 32.1777 243.49 29.7031C243.477 26.6953 246.088 24.6582 249.752 24.6445ZM245.486 48.0508V40.9688H248.986V45.2617H263.014V48.0508H245.486ZM246.744 29.7031C246.717 31.2207 247.988 32.0957 249.752 32.1094C251.543 32.0957 252.732 31.2207 252.732 29.7031C252.732 28.1445 251.529 27.2969 249.752 27.2695C247.988 27.2969 246.717 28.1445 246.744 29.7031ZM258.666 42.6367V23.6602H262.166V31.4805H265.338V34.3789H262.166V42.6367H258.666ZM287.836 42.8828V45.7539H265.059V42.8828H270.883V39.082H267.684V30.7148H281.766V28.0352H267.657V25.2461H285.211V33.5039H271.184V36.2656H285.786V39.082H282.258V42.8828H287.836ZM274.274 42.8828H278.84V39.082H274.274V42.8828Z" fill="#0088FF"/>
</svg>
