<svg width="293" height="277" viewBox="0 0 293 277" fill="none" xmlns="http://www.w3.org/2000/svg">
<path d="M225.765 100.629C227.233 101.905 226.762 104.273 224.917 104.891L217.861 107.254C216.016 107.872 214.181 106.276 214.558 104.382L215.999 97.1357C216.375 95.2414 218.681 94.4691 220.149 95.7457L225.765 100.629Z" fill="#F9AE46"/>
<path d="M137.53 69.62C136.951 68.389 137.48 66.9219 138.711 66.3433L144.284 63.7242C145.515 63.1456 146.982 63.6745 147.561 64.9056L150.18 70.4782C150.758 71.7092 150.23 73.1762 148.998 73.7548L143.426 76.374C142.195 76.9526 140.728 76.4237 140.149 75.1926L137.53 69.62Z" fill="#F1DC73"/>
<path d="M199.55 152.576C199.815 151.242 201.112 150.375 202.446 150.641L208.485 151.841C209.819 152.107 210.686 153.403 210.42 154.737L209.22 160.777C208.954 162.111 207.658 162.977 206.324 162.712L200.284 161.511C198.95 161.246 198.084 159.949 198.349 158.615L199.55 152.576Z" fill="#FBAF36"/>
<path d="M180.507 107.405C179.887 110.527 176.853 112.555 173.731 111.934C170.609 111.313 168.581 108.279 169.202 105.157C169.823 102.035 172.857 100.008 175.979 100.628C179.101 101.249 181.128 104.283 180.507 107.405Z" fill="#EA7979"/>
<path fill-rule="evenodd" clip-rule="evenodd" d="M175.398 67.008C176.915 67.1206 178.054 68.442 177.941 69.9593L175.227 69.7579C177.941 69.9593 177.941 69.96 177.941 69.9606L177.941 69.9665L177.94 69.9787C177.939 69.9885 177.938 70.0015 177.937 70.0177C177.934 70.05 177.93 70.0949 177.925 70.1513C177.915 70.264 177.9 70.4231 177.879 70.6204C177.837 71.014 177.771 71.5643 177.672 72.2036C177.48 73.454 177.149 75.1619 176.589 76.7209C176.31 77.5009 175.942 78.3333 175.447 79.0791C174.965 79.8071 174.241 80.6362 173.181 81.137C172.018 81.6865 170.738 81.7039 169.525 81.2363C168.41 80.8066 167.446 80.0096 166.599 79.0723C166.471 78.9309 166.357 78.8147 166.256 78.7196C166.137 78.9472 166.011 79.2368 165.884 79.5907C165.498 80.666 165.231 81.9757 165.06 83.0844C164.977 83.6246 164.922 84.0892 164.887 84.4156C164.869 84.5784 164.857 84.7055 164.85 84.7891C164.846 84.8308 164.844 84.8616 164.842 84.8804C164.841 84.8898 164.841 84.8962 164.841 84.8994L164.841 84.8997C164.841 84.9 164.84 84.9004 164.84 84.9007C164.84 84.9009 164.84 84.9012 164.84 84.9014C164.727 86.4178 163.406 87.5557 161.889 87.4432C160.372 87.3305 159.233 86.0092 159.346 84.4919L161.949 84.6851C159.346 84.4918 159.346 84.4912 159.346 84.4905L159.346 84.4846L159.347 84.4724C159.348 84.4627 159.349 84.4496 159.35 84.4335C159.353 84.4012 159.357 84.3563 159.362 84.2999C159.372 84.1872 159.387 84.028 159.408 83.8308C159.45 83.4372 159.516 82.8869 159.614 82.2476C159.807 80.9972 160.138 79.2893 160.697 77.7302C160.977 76.9503 161.345 76.1179 161.839 75.372C162.322 74.644 163.045 73.815 164.106 73.3141C165.269 72.7647 166.549 72.7472 167.762 73.2149C168.877 73.6446 169.841 74.4416 170.688 75.3789C170.815 75.5202 170.93 75.6365 171.031 75.7316C171.15 75.5039 171.276 75.2144 171.403 74.8604C171.789 73.7852 172.056 72.4755 172.226 71.3668C172.309 70.8266 172.365 70.362 172.4 70.0355C172.418 69.8728 172.43 69.7457 172.437 69.6621C172.441 69.6203 172.443 69.5896 172.445 69.5708C172.446 69.5614 172.446 69.555 172.446 69.5517L172.446 69.5497L172.446 69.5505C172.446 69.5501 172.446 69.5497 172.447 69.5493C172.56 68.0331 173.881 66.8954 175.398 67.008ZM172.446 69.5505C172.446 69.5508 172.446 69.5512 172.446 69.5515L175.194 69.7554C172.446 69.5515 172.446 69.551 172.446 69.5505Z" fill="#62CDCA"/>
<path fill-rule="evenodd" clip-rule="evenodd" d="M216.049 127.839C216.526 126.394 215.741 124.837 214.296 124.36L213.443 126.945C214.296 124.36 214.295 124.36 214.294 124.36L214.289 124.358L214.277 124.354C214.268 124.351 214.255 124.347 214.24 124.342C214.209 124.332 214.166 124.319 214.112 124.302C214.004 124.268 213.851 124.221 213.661 124.165C213.281 124.053 212.747 123.904 212.119 123.75C210.89 123.449 209.186 123.102 207.531 123.022C206.704 122.983 205.794 123.004 204.915 123.175C204.058 123.343 203.016 123.694 202.147 124.482C201.195 125.346 200.689 126.522 200.657 127.822C200.627 129.017 200.995 130.213 201.537 131.353C201.619 131.525 201.682 131.676 201.731 131.806C201.476 131.828 201.16 131.834 200.784 131.816C199.643 131.761 198.331 131.507 197.241 131.24C196.71 131.11 196.26 130.984 195.945 130.891C195.788 130.845 195.666 130.808 195.586 130.782C195.546 130.77 195.516 130.761 195.498 130.755C195.489 130.752 195.483 130.75 195.48 130.749L195.48 130.749C195.48 130.749 195.479 130.749 195.479 130.748C195.479 130.748 195.479 130.748 195.478 130.748C194.034 130.273 192.477 131.058 192.001 132.503C191.524 133.948 192.31 135.505 193.755 135.982L194.572 133.502C193.755 135.982 193.755 135.982 193.756 135.982L193.762 135.984L193.773 135.988C193.782 135.991 193.795 135.995 193.81 136C193.841 136.01 193.884 136.023 193.938 136.04C194.046 136.074 194.199 136.121 194.389 136.177C194.769 136.289 195.303 136.438 195.931 136.592C197.16 136.893 198.865 137.24 200.519 137.319C201.347 137.359 202.257 137.338 203.135 137.166C203.992 136.999 205.035 136.648 205.903 135.86C206.856 134.996 207.361 133.82 207.394 132.52C207.423 131.325 207.056 130.129 206.513 128.989C206.432 128.817 206.368 128.666 206.319 128.536C206.575 128.514 206.891 128.508 207.266 128.526C208.407 128.581 209.719 128.835 210.809 129.102C211.34 129.232 211.79 129.358 212.105 129.451C212.262 129.497 212.384 129.534 212.465 129.56C212.505 129.572 212.534 129.581 212.552 129.587C212.561 129.59 212.567 129.592 212.57 129.593L212.572 129.594L212.571 129.593C212.572 129.594 212.572 129.594 212.572 129.594C214.017 130.069 215.573 129.284 216.049 127.839ZM212.571 129.593C212.571 129.593 212.571 129.593 212.57 129.593L213.433 126.977C212.57 129.593 212.571 129.593 212.571 129.593Z" fill="#F9D773"/>
<path d="M42.532 198.997L113.001 91.8333L168.875 176.916L42.532 198.997Z" fill="url(#paint0_linear_104_858)"/>
<path d="M46.6122 176.36C49.1423 174.669 52.564 175.349 54.2548 177.879L67.2292 197.294C68.92 199.824 68.2396 203.246 65.7095 204.937L56.6284 211.005C54.0983 212.696 50.6766 212.016 48.9858 209.486L36.0115 190.071C34.3207 187.541 35.0011 184.119 37.5311 182.428L46.6122 176.36Z" fill="url(#paint1_linear_104_858)"/>
<path d="M121.062 77.3317C123.593 75.6409 127.014 76.3213 128.705 78.8514L187.206 166.392C188.897 168.922 188.216 172.343 185.686 174.034L176.605 180.103C174.075 181.794 170.653 181.113 168.963 178.583L110.462 91.0429C108.771 88.5128 109.451 85.0912 111.981 83.4004L121.062 77.3317Z" fill="url(#paint2_linear_104_858)"/>
<path fill-rule="evenodd" clip-rule="evenodd" d="M253.384 88.5222C253.977 87.1206 255.593 86.4646 256.994 87.0568L255.935 89.564C256.994 87.0568 256.995 87.0571 256.996 87.0573L257.001 87.0596L257.012 87.0644C257.021 87.0683 257.033 87.0734 257.048 87.0798C257.078 87.0927 257.119 87.1106 257.171 87.1334C257.275 87.179 257.421 87.2442 257.601 87.3273C257.96 87.493 258.46 87.7319 259.035 88.0296C260.158 88.6117 261.67 89.4723 262.968 90.5011C263.617 91.0157 264.288 91.6308 264.837 92.3377C265.372 93.0276 265.926 93.9785 266.061 95.1433C266.21 96.4209 265.817 97.6393 264.985 98.6392C264.221 99.5577 263.158 100.216 261.999 100.719C261.824 100.794 261.677 100.866 261.555 100.931C261.732 101.116 261.966 101.329 262.261 101.562C263.156 102.272 264.312 102.944 265.308 103.46C265.793 103.712 266.215 103.913 266.513 104.051C266.662 104.119 266.779 104.171 266.855 104.205C266.894 104.222 266.922 104.234 266.939 104.242C266.948 104.245 266.954 104.248 266.957 104.249L266.957 104.249C266.957 104.25 266.958 104.25 266.958 104.25C266.958 104.25 266.958 104.25 266.959 104.25C268.359 104.843 269.014 106.458 268.422 107.859C267.83 109.261 266.214 109.917 264.812 109.325L265.829 106.92C264.812 109.325 264.812 109.325 264.811 109.324L264.806 109.322L264.795 109.317C264.785 109.313 264.773 109.308 264.759 109.302C264.729 109.289 264.688 109.271 264.636 109.248C264.532 109.203 264.386 109.137 264.206 109.054C263.847 108.889 263.346 108.65 262.772 108.352C261.649 107.77 260.137 106.909 258.839 105.881C258.189 105.366 257.519 104.751 256.97 104.044C256.435 103.354 255.881 102.403 255.746 101.238C255.597 99.9607 255.99 98.7422 256.822 97.7424C257.585 96.8239 258.649 96.1652 259.808 95.663C259.983 95.5872 260.13 95.5158 260.252 95.4503C260.074 95.2651 259.84 95.0529 259.546 94.8193C258.65 94.1098 257.495 93.4376 256.499 92.9214C256.014 92.6699 255.592 92.4683 255.294 92.3308C255.145 92.2623 255.028 92.2103 254.952 92.1765C254.913 92.1596 254.885 92.1473 254.868 92.1398C254.859 92.1361 254.853 92.1336 254.85 92.1323L254.848 92.1315L254.849 92.1318C254.848 92.1316 254.848 92.1315 254.848 92.1313C253.448 91.5384 252.792 89.923 253.384 88.5222ZM254.849 92.1318C254.849 92.1319 254.849 92.1321 254.85 92.1322L255.922 89.5945C254.85 92.1322 254.849 92.132 254.849 92.1318Z" fill="#62CDCA"/>
<path d="M209.024 66.5102C207.906 65.7348 207.629 64.2003 208.404 63.0827L211.914 58.0236C212.689 56.906 214.224 56.6286 215.342 57.404L220.401 60.9139C221.518 61.6893 221.796 63.2239 221.02 64.3415L217.51 69.4006C216.735 70.5182 215.2 70.7956 214.083 70.0202L209.024 66.5102Z" fill="#F1DC73"/>
<path d="M259.154 143.37C258.517 142.168 258.974 140.678 260.176 140.04L265.615 137.154C266.817 136.517 268.308 136.974 268.945 138.176L271.831 143.615C272.468 144.817 272.011 146.308 270.809 146.945L265.37 149.831C264.168 150.468 262.678 150.011 262.04 148.809L259.154 143.37Z" fill="#F1DC73"/>
<path d="M277.429 75.9006C276.809 79.0225 273.775 81.0501 270.653 80.4293C267.531 79.8085 265.503 76.7745 266.124 73.6527C266.745 70.5308 269.779 68.5032 272.901 69.124C276.023 69.7448 278.05 72.7788 277.429 75.9006Z" fill="#EA7979"/>
<path d="M190.429 34.9006C189.809 38.0225 186.775 40.0501 183.653 39.4293C180.531 38.8085 178.503 35.7745 179.124 32.6527C179.745 29.5308 182.779 27.5032 185.901 28.124C189.023 28.7448 191.05 31.7788 190.429 34.9006Z" fill="#EEB52F"/>
<defs>
<linearGradient id="paint0_linear_104_858" x1="42.532" y1="198.997" x2="140.938" y2="134.375" gradientUnits="userSpaceOnUse">
<stop stop-color="#FFA624"/>
<stop offset="1" stop-color="#FFD570"/>
</linearGradient>
<linearGradient id="paint1_linear_104_858" x1="30.5088" y1="162.035" x2="67.6828" y2="225" gradientUnits="userSpaceOnUse">
<stop stop-color="#7CD5FC"/>
<stop offset="1" stop-color="#0EB5FC"/>
</linearGradient>
<linearGradient id="paint2_linear_104_858" x1="113.699" y1="76.0892" x2="187.051" y2="185.853" gradientUnits="userSpaceOnUse">
<stop stop-color="#7DD6FC"/>
<stop offset="1" stop-color="#10B5FC"/>
</linearGradient>
</defs>
</svg>
