<svg width="324" height="53" viewBox="0 0 324 53" fill="none" xmlns="http://www.w3.org/2000/svg">
<path d="M78.1962 12.0078C78.1747 17.7441 83.2665 23.8672 92.118 25.3711L89.7118 29.9258C82.8798 28.5723 77.8309 24.7266 75.2958 19.7207C72.7177 24.6836 67.6473 28.5508 60.8798 29.9258L58.5165 25.3711C67.2177 23.8242 72.3094 17.6797 72.3524 12.0078V9.17188H78.1962V12.0078ZM57.6141 41.1406V36.6289H93.4071V41.1406H57.6141ZM114.345 10.5469V36.4141H95.5676V10.5469H114.345ZM100.982 32.0742H108.888V14.8438H100.982V32.0742ZM119.673 45.9531V6.85156H125.173V21.5898H130.931V26.1445H125.173V45.9531H119.673ZM162.912 27.0469V31.3867H135.24V9.73047H162.611V14.1562H140.826V18.2812H161.709V22.5781H140.826V27.0469H162.912ZM131.029 41.3984V36.9297H166.822V41.3984H131.029ZM207.709 8.69922V23.0078H197.096V27.0039H212.221V31.3867H176.557V27.0039H191.596V23.0078H180.983V8.69922H207.709ZM180.854 45.2656V33.9219H186.354V40.8828H208.182V45.2656H180.854ZM186.354 18.7109H202.338V13.0391H186.354V18.7109ZM229.077 11.1914V15.4883H219.666V21.7188H227.53V25.8867H219.666V32.9121C223.856 32.8477 226.928 32.6328 230.581 32.0312L231.053 36.457C226.563 37.2734 222.825 37.3164 217.088 37.3164H214.467V11.1914H229.077ZM229.377 25.5V21.1172H233.76V7.53906H238.874V44.1914H233.76V25.5H229.377ZM241.881 45.9531V6.85156H247.166V45.9531H241.881ZM285.764 36.8867V41.2695H249.971V36.8867H264.925V28.0352H270.382V36.8867H285.764ZM250.831 24.7266C259.682 23.3516 264.667 17.4004 264.71 11.8789V9.08594H270.554V11.8789C270.532 17.4648 275.581 23.3516 284.518 24.7266L282.198 29.2812C275.323 28.0352 270.21 24.3613 267.632 19.4844C265.075 24.3398 259.983 28.0566 253.151 29.2812L250.831 24.7266ZM319.464 6.85156V46.0391H314.007V6.85156H319.464ZM288.741 14.543V10.1172H307.347V25.1992H294.456V32.375C300.429 32.332 305.478 32.0312 311.214 31.0859L311.687 35.5117C305.263 36.6504 299.441 36.8867 292.308 36.8867H288.784V20.8594H301.761V14.543H288.741Z" fill="#4E4E4E"/>
<path d="M41 15.5C41 20.7467 36.7467 25 31.5 25C26.2533 25 22 20.7467 22 15.5C22 10.2533 26.2533 6 31.5 6C36.7467 6 41 10.2533 41 15.5Z" fill="#5BB4F8"/>
<path d="M0 10.2222C0 7.89035 1.89035 6 4.22222 6H14.7778C17.1096 6 19 7.89035 19 10.2222V20.7778C19 23.1096 17.1096 25 14.7778 25H4.22222C1.89035 25 0 23.1096 0 20.7778V10.2222Z" fill="#5BB4F8"/>
<path d="M22 31.4444C22 28.9898 23.8904 27 26.2222 27H36.7778C39.1096 27 41 28.9898 41 31.4444V42.5556C41 45.0102 39.1096 47 36.7778 47H26.2222C23.8904 47 22 45.0102 22 42.5556V31.4444Z" fill="#5BB4F8"/>
<path d="M16.9121 33.4991C19.696 35.0551 19.696 38.9449 16.9121 40.5009L6.26373 46.4524C3.47985 48.0083 -8.33287e-07 46.0634 -6.97262e-07 42.9515L-1.76965e-07 31.0485C-4.09401e-08 27.9366 3.47985 25.9917 6.26374 27.5476L16.9121 33.4991Z" fill="#5BB4F8"/>
</svg>
