<svg width="71" height="71" viewBox="0 0 71 71" fill="none" xmlns="http://www.w3.org/2000/svg">
<path d="M69 16C69 24.8366 61.8366 32 53 32C44.1634 32 37 24.8366 37 16C37 7.16344 44.1634 0 53 0C61.8366 0 69 7.16344 69 16Z" fill="white"/>
<path d="M0 7.11111C0 3.18375 3.08426 0 6.88889 0H24.1111C27.9157 0 31 3.18375 31 7.11111V24.8889C31 28.8162 27.9157 32 24.1111 32H6.88889C3.08426 32 0 28.8162 0 24.8889V7.11111Z" fill="white"/>
<path d="M38 44.1111C38 40.1838 41.0843 37 44.8889 37H62.1111C65.9157 37 69 40.1838 69 44.1111V61.8889C69 65.8162 65.9157 69 62.1111 69H44.8889C41.0843 69 38 65.8162 38 61.8889V44.1111Z" fill="white"/>
<path d="M28.4835 48.0485C33.1722 50.6936 33.1722 57.3064 28.4835 59.9515L10.5494 70.069C5.8608 72.7142 4.9076e-07 69.4078 7.22003e-07 64.1175L1.60651e-06 43.8824C1.83775e-06 38.5922 5.86081 35.2858 10.5495 37.931L28.4835 48.0485Z" fill="white"/>
</svg>
