<svg width="29" height="30" viewBox="0 0 29 30" fill="none" xmlns="http://www.w3.org/2000/svg">
<path d="M0.820312 14.5C0.820312 6.94518 6.94472 0.82077 14.4996 0.82077C22.0544 0.82077 28.1788 6.94518 28.1788 14.5C28.1788 22.0549 22.0544 28.1793 14.4996 28.1793C6.94472 28.1793 0.820312 22.0549 0.820312 14.5Z" fill="#0088FF"/>
<path fill-rule="evenodd" clip-rule="evenodd" d="M0 14.5C0 6.49187 6.49187 0 14.5 0C22.5081 0 29 6.49187 29 14.5C29 22.5081 22.5081 29 14.5 29C6.49187 29 0 22.5081 0 14.5ZM14.5 1.64151C7.39845 1.64151 1.64151 7.39845 1.64151 14.5C1.64151 21.6015 7.39845 27.3585 14.5 27.3585C21.6015 27.3585 27.3585 21.6015 27.3585 14.5C27.3585 7.39845 21.6015 1.64151 14.5 1.64151Z" fill="#5BB4F8"/>
<g filter="url(#filter0_d_141_834)">
<path d="M13.163 7.36943C13.7867 6.29853 15.3338 6.29853 15.9575 7.36943L17.4078 9.85944C17.6363 10.2517 18.0192 10.5299 18.4629 10.626L21.2792 11.2358C22.4904 11.4981 22.9685 12.9695 22.1428 13.8936L20.2228 16.0424C19.9203 16.3809 19.7741 16.831 19.8198 17.2827L20.1101 20.1496C20.2349 21.3826 18.9833 22.292 17.8492 21.7922L15.2123 20.6303C14.7969 20.4472 14.3236 20.4472 13.9082 20.6303L11.2713 21.7922C10.1372 22.292 8.88558 21.3826 9.01042 20.1496L9.30069 17.2827C9.34642 16.831 9.20018 16.3809 8.8977 16.0424L6.97772 13.8936C6.15198 12.9695 6.63006 11.4981 7.84129 11.2358L10.6576 10.626C11.1013 10.5299 11.4842 10.2517 11.7127 9.85944L13.163 7.36943Z" fill="url(#paint0_linear_141_834)"/>
</g>
<defs>
<filter id="filter0_d_141_834" x="2.56519" y="6.56625" width="23.9902" height="23.3657" filterUnits="userSpaceOnUse" color-interpolation-filters="sRGB">
<feFlood flood-opacity="0" result="BackgroundImageFix"/>
<feColorMatrix in="SourceAlpha" type="matrix" values="0 0 0 0 0 0 0 0 0 0 0 0 0 0 0 0 0 0 127 0" result="hardAlpha"/>
<feOffset dy="4"/>
<feGaussianBlur stdDeviation="2"/>
<feComposite in2="hardAlpha" operator="out"/>
<feColorMatrix type="matrix" values="0 0 0 0 0 0 0 0 0 0.484444 0 0 0 0 0.908333 0 0 0 1 0"/>
<feBlend mode="normal" in2="BackgroundImageFix" result="effect1_dropShadow_141_834"/>
<feBlend mode="normal" in="SourceGraphic" in2="effect1_dropShadow_141_834" result="shape"/>
</filter>
<linearGradient id="paint0_linear_141_834" x1="14.5602" y1="6.56625" x2="14.5602" y2="21.932" gradientUnits="userSpaceOnUse">
<stop stop-color="#BBE2FF"/>
<stop offset="1" stop-color="#6CBFFF"/>
</linearGradient>
</defs>
</svg>
