<svg width="700" height="73" viewBox="0 0 700 73" fill="none" xmlns="http://www.w3.org/2000/svg">
<rect width="700" height="73" rx="36.5" fill="#F5F5F5"/>
<path d="M61.9945 26.5312V28.2812H47.5023V26.5312H53.682V23.7969H55.8148V26.5312H61.9945ZM48.8969 33.9414C48.8832 31.2617 51.2348 29.5664 54.7484 29.5391C58.2348 29.5664 60.5727 31.2617 60.6 33.9414C60.5727 36.5801 58.2348 38.3027 54.7484 38.3164C51.2348 38.3027 48.8832 36.5801 48.8969 33.9414ZM50.5375 42.1992V40.4492H66.4516V48.2148H64.3188V42.1992H50.5375ZM50.9477 33.9414C50.934 35.5547 52.4516 36.6074 54.7484 36.5938C57.018 36.6074 58.5492 35.5547 58.5766 33.9414C58.5492 32.2871 57.018 31.2207 54.7484 31.207C52.4516 31.2207 50.934 32.2871 50.9477 33.9414ZM64.3188 39.1094V23.9062H66.4516V30.6602H70.1156V32.4648H66.4516V39.1094H64.3188ZM75.1961 38.5078V41.3516H87.3367V38.5078H89.4969V47.8867H73.0633V38.5078H75.1961ZM70.2469 36.7852V35.0078H92.3953V36.7852H70.2469ZM71.5047 31.5625C75.8387 30.9746 80.2274 28.418 80.2274 25.3281V24.1797H82.4422V25.3281C82.4285 28.3223 86.8582 31.0156 91.1375 31.5625L90.3445 33.2852C86.5848 32.7246 82.8797 30.8105 81.3348 28.0898C79.7899 30.8242 76.0711 32.7246 72.325 33.2852L71.5047 31.5625ZM75.1961 46.1641H87.3367V43.0469H75.1961V46.1641ZM120.822 35.2812V37.0586H110.787V39.6562C115.367 39.8613 118.088 41.3516 118.115 43.9219C118.088 46.6426 114.957 48.1602 109.748 48.1602C104.47 48.1602 101.339 46.6426 101.353 43.9219C101.339 41.3516 104.046 39.8613 108.681 39.6562V37.0586H98.6734V35.2812H120.822ZM99.9313 32.1094C104.142 31.6719 108.203 29.5254 108.353 26.8047H100.697V25.0547H118.853V26.8047H111.142C111.293 29.5254 115.312 31.6719 119.591 32.1094L118.798 33.8047C114.82 33.3262 111.088 31.5352 109.748 28.8418C108.408 31.5352 104.703 33.3262 100.697 33.8047L99.9313 32.1094ZM103.541 43.9219C103.513 45.5352 105.851 46.5059 109.748 46.4922C113.603 46.5059 115.941 45.5352 115.955 43.9219C115.941 42.2676 113.603 41.3242 109.748 41.2969C105.851 41.3242 103.513 42.2676 103.541 43.9219ZM191.511 23.9062V33.9414H195.585V35.7188H191.511V48.2148H189.378V23.9062H191.511ZM172.562 29.5938V27.8164H178.823V24.207H180.956V27.8164H187.027V29.5938H172.562ZM173.956 37.1953C173.943 33.9141 176.458 31.6172 179.917 31.6172C183.349 31.6172 185.851 33.9141 185.878 37.1953C185.851 40.4902 183.349 42.7734 179.917 42.7734C176.458 42.7734 173.943 40.4902 173.956 37.1953ZM176.007 37.1953C175.993 39.4102 177.648 40.9688 179.917 40.9414C182.159 40.9688 183.8 39.4102 183.827 37.1953C183.8 34.9941 182.159 33.4082 179.917 33.4219C177.648 33.4082 175.993 34.9941 176.007 37.1953ZM207.802 26.0391V28.1992H213.49V23.9336H215.65V41.6797H213.49V35.1992H207.802V37.3867H196.646V26.0391H207.802ZM198.779 35.6641H205.697V27.8164H198.779V35.6641ZM199.927 47.6953V40.0938H202.088V45.8906H216.197V47.6953H199.927ZM207.802 33.4219H213.49V30.0039H207.802V33.4219ZM222.289 44.168L220.156 51.6055H218.133L219.637 44.168H222.289ZM241.829 28.1172V29.8672H229.634V28.1172H234.692V24.6445H236.825V28.1172H241.829ZM230.509 37.0312C230.509 33.8047 232.71 31.5215 235.731 31.5078C238.794 31.5215 240.981 33.8047 241.009 37.0312C240.981 40.2988 238.794 42.5957 235.731 42.6094C232.71 42.5957 230.509 40.2988 230.509 37.0312ZM232.423 37.0312C232.423 39.1914 233.804 40.7363 235.731 40.7227C237.673 40.7363 239.095 39.1914 239.095 37.0312C239.095 34.8984 237.673 33.3398 235.731 33.3125C233.804 33.3398 232.423 34.8984 232.423 37.0312ZM243.087 47.0117V24.5078H245.11V34.1602H248.337V23.9062H250.388V48.2148H248.337V35.9375H245.11V47.0117H243.087ZM271.519 23.9062V30.25H275.155V32.0547H271.519V38.4258H269.359V23.9062H271.519ZM253.609 36.4297V25.7656H264.409V27.543H255.714V34.6797C260.636 34.6523 263.466 34.502 266.734 33.832L266.952 35.6094C263.548 36.293 260.636 36.4297 255.495 36.4297H253.609ZM255.632 43.5117C255.646 40.5996 258.736 38.9043 263.698 38.8906C268.661 38.9043 271.71 40.5996 271.71 43.5117C271.71 46.4648 268.661 48.1602 263.698 48.1602C258.736 48.1602 255.646 46.4648 255.632 43.5117ZM257.738 43.5117C257.751 45.3164 260.034 46.4238 263.698 46.4375C267.335 46.4238 269.646 45.3164 269.632 43.5117C269.646 41.7207 267.335 40.6406 263.698 40.668C260.034 40.6406 257.751 41.7207 257.738 43.5117ZM289.008 31.8359C289.021 35.7324 291.551 39.7109 295.078 41.4062L293.82 43.0742C291.141 41.7617 289.021 39.0957 288.01 35.9648C286.943 39.3555 284.688 42.1719 281.926 43.5117L280.695 41.8438C284.264 40.1758 286.916 36.0195 286.93 31.8359V29.8945H281.352V28.1445H286.902V24.3711H289.062V28.1445H294.531V29.8945H289.008V31.8359ZM297.594 48.2148V23.9062H299.727V33.8867H303.801V35.7188H299.727V48.2148H297.594ZM312.354 30.4414C312.34 34.8848 315.362 39.3418 318.944 40.9688L317.631 42.6641C314.856 41.3242 312.463 38.4395 311.301 34.9805C310.18 38.6445 307.788 41.7207 304.944 43.1562L303.577 41.3516C307.2 39.6973 310.194 35.0488 310.221 30.4414V26.0117H312.354V30.4414ZM321.596 48.2695V23.9062H323.756V48.2695H321.596ZM346.687 26.5312V28.2812H332.195V26.5312H338.374V23.7969H340.507V26.5312H346.687ZM333.589 33.9414C333.575 31.2617 335.927 29.5664 339.441 29.5391C342.927 29.5664 345.265 31.2617 345.292 33.9414C345.265 36.5801 342.927 38.3027 339.441 38.3164C335.927 38.3027 333.575 36.5801 333.589 33.9414ZM335.23 42.1992V40.4492H351.144V48.2148H349.011V42.1992H335.23ZM335.64 33.9414C335.626 35.5547 337.144 36.6074 339.441 36.5938C341.71 36.6074 343.241 35.5547 343.269 33.9414C343.241 32.2871 341.71 31.2207 339.441 31.207C337.144 31.2207 335.626 32.2871 335.64 33.9414ZM349.011 39.1094V23.9062H351.144V30.6602H354.808V32.4648H351.144V39.1094H349.011ZM359.888 38.5078V41.3516H372.029V38.5078H374.189V47.8867H357.755V38.5078H359.888ZM354.939 36.7852V35.0078H377.087V36.7852H354.939ZM356.197 31.5625C360.531 30.9746 364.92 28.418 364.92 25.3281V24.1797H367.134V25.3281C367.121 28.3223 371.55 31.0156 375.83 31.5625L375.037 33.2852C371.277 32.7246 367.572 30.8105 366.027 28.0898C364.482 30.8242 360.763 32.7246 357.017 33.2852L356.197 31.5625ZM359.888 46.1641H372.029V43.0469H359.888V46.1641ZM403.518 23.9062V36.3477H401.358V33.8047H394.877V32.1094H401.358V29.1836H395.233C393.715 33.0117 389.942 35.5957 384.541 36.8945L383.776 35.1172C389.737 33.7363 393.196 30.8379 393.606 26.9141H385.006V25.1367H395.971C395.971 25.9434 395.889 26.7227 395.739 27.4609H401.358V23.9062H403.518ZM387.768 39.1914V37.4414H403.518V43.375H389.955V46.2188H404.338V47.9961H387.823V41.7344H401.358V39.1914H387.768ZM419.645 26.6133V27.8711C419.632 29.7988 419.632 33.0117 418.934 37.5234L416.774 37.332C417.444 33.2578 417.499 30.3047 417.485 28.3633H407.286V26.6133H419.645ZM405.919 41.0781C407.518 41.0645 409.296 41.0508 411.169 41.0098V33.5586H413.274V40.9414C415.968 40.8457 418.729 40.668 421.259 40.3672L421.368 41.9805C416.255 42.7734 410.54 42.8828 406.192 42.8555L405.919 41.0781ZM422.79 48.2148V23.9062H424.923V34.0781H428.86V35.9375H424.923V48.2148H422.79ZM447.777 23.9062V33.8047H451.714V35.6094H447.777V48.2148H445.644V23.9062H447.777ZM429.128 41.8984C435.404 38.7812 438.822 34.0918 439.314 28.3359H430.249V26.5312H441.488C441.474 33.4082 438.247 39.6836 430.331 43.5938L429.128 41.8984ZM477.543 23.9062V48.2695H475.383V34.543H470.051V32.7656H475.383V23.9062H477.543ZM457.172 41.7344C460.699 40.0254 463.639 35.4453 463.652 31.125V28.1992H458.102V26.4219H471.391V28.1992H465.812V31.125C465.826 35.1719 468.725 39.5742 472.266 41.1875L470.98 42.9102C468.205 41.543 465.867 38.6035 464.76 35.2129C463.666 38.8223 461.26 41.9531 458.484 43.4023L457.172 41.7344ZM488.42 28.5273C488.434 31.7129 490.813 34.5566 494.381 35.7188L493.37 37.4141C490.567 36.4844 488.448 34.5566 487.395 32.1094C486.356 34.8984 484.114 37.0723 481.202 38.125L480.108 36.4023C483.745 35.1719 486.288 32.041 486.315 28.5273V27.4883H480.764V25.7109H493.889V27.4883H488.42V28.5273ZM483.334 43.6758C483.348 40.873 486.397 39.2461 491.401 39.2461C496.391 39.2461 499.413 40.873 499.413 43.6758C499.413 46.5195 496.391 48.1602 491.401 48.1602C486.397 48.1602 483.348 46.5195 483.334 43.6758ZM485.495 43.6758C485.467 45.4258 487.737 46.4512 491.401 46.4375C495.079 46.4512 497.321 45.4258 497.334 43.6758C497.321 41.9805 495.079 40.9688 491.401 40.9688C487.737 40.9688 485.467 41.9805 485.495 43.6758ZM497.061 38.5898V23.9062H499.194V30.1133H502.858V31.918H499.194V38.5898H497.061ZM517.481 34.4062V36.1836H512.149V40.9688C514.528 40.873 516.921 40.709 519.177 40.4492L519.341 42.0625C513.954 42.8418 508.075 42.9512 503.427 42.9375L503.126 41.1328C505.245 41.1328 507.596 41.1191 510.016 41.0508V36.1836H504.985V26.2305H517.372V27.9805H507.091V34.4062H517.481ZM520.79 48.2695V23.9062H522.923V48.2695H520.79ZM534.484 31.3711C534.497 35.5 537.491 39.6973 541.073 41.2422L539.87 42.9375C537.027 41.6523 534.579 38.8496 533.445 35.4863C532.31 39.0547 529.849 42.1445 527.073 43.5391L525.788 41.8438C529.275 40.1758 532.31 35.582 532.323 31.3711V28.1992H526.581V26.4219H540.28V28.1992H534.484V31.3711ZM543.671 48.2148V23.9062H545.831V48.2148H543.671ZM560.996 25.3008C564.633 25.3145 567.312 27.625 567.312 30.9062C567.312 34.2285 564.633 36.5254 560.996 36.5391C557.373 36.5254 554.666 34.2285 554.68 30.9062C554.666 27.625 557.373 25.3145 560.996 25.3008ZM556.785 30.9062C556.771 33.1348 558.604 34.7617 560.996 34.7617C563.402 34.7617 565.221 33.1348 565.207 30.9062C565.221 28.7188 563.402 27.1055 560.996 27.1055C558.604 27.1055 556.771 28.7188 556.785 30.9062ZM556.812 47.5586V38.6992H558.891V45.7949C560.299 45.7402 562.172 45.5352 563.895 44.9609L564.223 46.6836C561.857 47.4629 559.547 47.5723 557.961 47.5586H556.812ZM563.375 40.4766V38.8086H568.488V36.6484H570.594V38.8086H575.652V40.4766H563.375ZM564.988 44.7422C564.975 42.6367 566.82 41.2969 569.5 41.2969C572.166 41.2969 574.039 42.6367 574.066 44.7422C574.039 46.8477 572.166 48.1602 569.5 48.1602C566.82 48.1602 564.975 46.8477 564.988 44.7422ZM566.902 44.7422C566.902 45.8906 567.982 46.6152 569.5 46.6289C571.018 46.6152 572.098 45.8906 572.098 44.7422C572.098 43.6211 571.018 42.8691 569.5 42.8555C567.982 42.8691 566.902 43.6211 566.902 44.7422ZM571.086 36.0742V23.9062H573.219V29.4023H576.883V31.1797H573.219V36.0742H571.086ZM581.963 38.5078V41.3516H594.104V38.5078H596.264V47.8867H579.83V38.5078H581.963ZM577.014 36.7852V35.0078H599.162V36.7852H577.014ZM578.272 31.5625C582.606 30.9746 586.995 28.418 586.995 25.3281V24.1797H589.209V25.3281C589.196 28.3223 593.625 31.0156 597.905 31.5625L597.112 33.2852C593.352 32.7246 589.647 30.8105 588.102 28.0898C586.557 30.8242 582.838 32.7246 579.092 33.2852L578.272 31.5625ZM581.963 46.1641H594.104V43.0469H581.963V46.1641ZM619.856 23.9062V48.2148H617.723V23.9062H619.856ZM601.399 41.9531V26.3125H603.505V40.0938C607.223 40.0664 611.052 39.7793 615.126 38.918L615.427 40.75C611.106 41.6523 607.264 41.9531 603.368 41.9531H601.399ZM641.425 23.9062V33.5312H645.499V35.3359H641.425V48.2695H639.292V23.9062H641.425ZM623.679 42.1719V26.2852H635.027V28.0625H625.812V40.3672C630.214 40.3535 633.318 40.1621 636.941 39.4922L637.214 41.3516C633.4 42.0352 630.214 42.1719 625.593 42.1719H623.679ZM647.982 46.1641C647.025 46.1504 646.205 45.3574 646.232 44.3867C646.205 43.4297 647.025 42.6367 647.982 42.6367C648.953 42.6367 649.746 43.4297 649.732 44.3867C649.746 45.3574 648.953 46.1504 647.982 46.1641Z" fill="black"/>
<path d="M139.897 32.5469V35.5273H149.549V38.3438H126.854V35.5273H136.452V32.5469H139.897ZM127.838 31.2344C132.473 30.7969 135.016 29.1562 135.645 27.4336H128.932V24.6992H147.498V27.4336H140.731C141.346 29.1426 143.889 30.7969 148.565 31.2344L147.334 33.9688C142.645 33.5039 139.5 31.7676 138.174 29.3613C136.862 31.7539 133.745 33.5039 129.069 33.9688L127.838 31.2344ZM129.452 44.1133C129.452 41.2832 132.719 39.7109 138.174 39.7109C143.588 39.7109 146.815 41.2832 146.842 44.1133C146.815 46.9434 143.588 48.5293 138.174 48.5156C132.719 48.5293 129.452 46.9434 129.452 44.1133ZM133.006 44.1133C132.993 45.3301 134.688 45.918 138.174 45.918C141.579 45.918 143.329 45.3301 143.342 44.1133C143.329 42.9238 141.579 42.3633 138.174 42.3633C134.688 42.3633 132.993 42.9238 133.006 44.1133ZM172.43 42.8828V45.7539H149.653V42.8828H155.477V39.082H152.278V30.7148H166.36V28.0352H152.251V25.2461H169.805V33.5039H155.778V36.2656H170.38V39.082H166.852V42.8828H172.43ZM158.868 42.8828H163.434V39.082H158.868V42.8828Z" fill="#0088FF"/>
</svg>
