<svg width="100" height="100" viewBox="0 0 100 100" fill="none" xmlns="http://www.w3.org/2000/svg">
<rect width="100" height="100" rx="50" fill="#A8C0D1"/>
<path d="M45.116 24.9357C47.3959 21.0214 53.0508 21.0214 55.3307 24.9357L60.6318 34.0372C61.4669 35.4711 62.8664 36.4878 64.4882 36.839L74.7823 39.0682C79.2095 40.0269 80.957 45.405 77.9388 48.7829L70.9209 56.637C69.8153 57.8744 69.2808 59.5196 69.4479 61.1705L70.5089 71.6496C70.9652 76.1565 66.3903 79.4803 62.2451 77.6536L52.6067 73.4063C51.0882 72.7372 49.3584 72.7372 47.8399 73.4063L38.2016 77.6536C34.0563 79.4803 29.4814 76.1565 29.9377 71.6496L30.9988 61.1705C31.1659 59.5196 30.6314 57.8744 29.5257 56.637L22.5079 48.7829C19.4897 45.405 21.2371 40.0269 25.6644 39.0682L35.9585 36.839C37.5803 36.4878 38.9797 35.4711 39.8149 34.0372L45.116 24.9357Z" fill="#8BA3BB"/>
</svg>
