<svg width="60" height="60" viewBox="0 0 60 60" fill="none" xmlns="http://www.w3.org/2000/svg">
<path d="M11.692 28.4598L30.442 9.70968L27.7903 7.05803L9.0403 25.808L11.692 28.4598ZM11.875 51.25V28.0178H8.125V51.25H11.875ZM23.75 50.625H11.25V54.375H23.75V50.625ZM26.875 51.25V38.75H23.125V51.25H26.875ZM26.25 39.375H33.75V35.625H26.25V39.375ZM33.125 38.75V51.25H36.875V38.75H33.125ZM48.75 50.625H36.25V54.375H48.75V50.625ZM48.125 28.0178V51.25H51.875V28.0178H48.125ZM29.558 9.70968L48.308 28.4598L50.9597 25.808L32.2097 7.05803L29.558 9.70968ZM51.875 28.0178C51.875 27.189 51.5457 26.394 50.9597 25.808L48.308 28.4598C48.1908 28.3425 48.125 28.1835 48.125 28.0178H51.875ZM48.75 54.375C50.476 54.375 51.875 52.9758 51.875 51.25H48.125C48.125 50.9048 48.4048 50.625 48.75 50.625V54.375ZM33.125 51.25C33.125 52.9758 34.524 54.375 36.25 54.375V50.625C36.5952 50.625 36.875 50.9048 36.875 51.25H33.125ZM33.75 39.375C33.4048 39.375 33.125 39.0953 33.125 38.75H36.875C36.875 37.024 35.476 35.625 33.75 35.625V39.375ZM26.875 38.75C26.875 39.0953 26.5952 39.375 26.25 39.375V35.625C24.5241 35.625 23.125 37.024 23.125 38.75H26.875ZM23.75 54.375C25.476 54.375 26.875 52.9758 26.875 51.25H23.125C23.125 50.9048 23.4048 50.625 23.75 50.625V54.375ZM8.125 51.25C8.125 52.9758 9.5241 54.375 11.25 54.375V50.625C11.5952 50.625 11.875 50.9048 11.875 51.25H8.125ZM30.442 9.70968C30.1978 9.95376 29.8022 9.95376 29.558 9.70968L32.2097 7.05803C30.9892 5.83763 29.0108 5.83763 27.7903 7.05803L30.442 9.70968ZM9.0403 25.808C8.45425 26.394 8.125 27.189 8.125 28.0178H11.875C11.875 28.1835 11.8092 28.3425 11.692 28.4598L9.0403 25.808Z" fill="#D8D0BA"/>
<path d="M49.634 27.1338L48.308 28.4598M48.308 28.4598L29.558 9.70968M48.308 28.4598L50.9597 25.808M48.308 28.4598C48.1908 28.3425 48.125 28.1835 48.125 28.0178M36.25 52.5V54.375M36.25 54.375V50.625M36.25 54.375H48.75M36.25 54.375C34.524 54.375 33.125 52.9758 33.125 51.25M23.75 52.5V54.375M23.75 54.375H11.25M23.75 54.375V50.625M23.75 54.375C25.476 54.375 26.875 52.9758 26.875 51.25M11.25 52.5V50.625M11.25 50.625H23.75M11.25 50.625V54.375M11.25 50.625C11.5952 50.625 11.875 50.9048 11.875 51.25M30.884 8.38386L32.2097 7.05803M32.2097 7.05803L50.9597 25.808M32.2097 7.05803L29.558 9.70968M32.2097 7.05803C30.9892 5.83763 29.0108 5.83763 27.7903 7.05803M10.3661 27.1338L9.0403 25.808M9.0403 25.808L27.7903 7.05803M9.0403 25.808L11.692 28.4598M9.0403 25.808C8.45425 26.394 8.125 27.189 8.125 28.0178M11.692 28.4598L30.442 9.70968M11.692 28.4598C11.8092 28.3425 11.875 28.1835 11.875 28.0178M30.442 9.70968L27.7903 7.05803M30.442 9.70968C30.1977 9.95376 29.8023 9.95376 29.558 9.70968M11.875 51.25V28.0178M11.875 51.25H8.125M11.875 28.0178H8.125M8.125 28.0178V51.25M8.125 51.25C8.125 52.9758 9.5241 54.375 11.25 54.375M23.75 50.625C23.4048 50.625 23.125 50.9048 23.125 51.25M26.875 51.25V38.75M26.875 51.25H23.125M26.875 38.75H23.125M26.875 38.75C26.875 39.0953 26.5952 39.375 26.25 39.375M23.125 38.75V51.25M23.125 38.75C23.125 37.024 24.5241 35.625 26.25 35.625M26.25 39.375H33.75M26.25 39.375V35.625M33.75 39.375V35.625M33.75 39.375C33.4048 39.375 33.125 39.0953 33.125 38.75M33.75 35.625H26.25M33.75 35.625C35.476 35.625 36.875 37.024 36.875 38.75M33.125 38.75V51.25M33.125 38.75H36.875M33.125 51.25H36.875M36.875 51.25V38.75M36.875 51.25C36.875 50.9048 36.5952 50.625 36.25 50.625M48.75 50.625H36.25M48.75 50.625V54.375M48.75 50.625C48.4048 50.625 48.125 50.9048 48.125 51.25M48.75 54.375C50.476 54.375 51.875 52.9758 51.875 51.25M48.125 28.0178V51.25M48.125 28.0178H51.875M48.125 51.25H51.875M51.875 51.25V28.0178M51.875 28.0178C51.875 27.189 51.5457 26.394 50.9597 25.808" stroke="#D8D0BA"/>
</svg>
